<?xml version="1.0" encoding="iso-8859-1"?>
<!-- Generator: Adobe Illustrator 19.0.0, SVG Export Plug-In . SVG Version: 6.00 Build 0)  -->
<svg xmlns="http://www.w3.org/2000/svg" xmlns:xlink="http://www.w3.org/1999/xlink" version="1.1" id="Capa_1" x="0px" y="0px" viewBox="0 0 496 496" style="enable-background:new 0 0 496 496;" xml:space="preserve" width="512px" height="512px">
<g>
	<g>
		<g>
			<path d="M464,320V64H112v-8c0-30.872-25.12-56-56-56S0,25.128,0,56v353.888l37.264,74.528C40.832,491.56,48.016,496,56,496     s15.168-4.44,18.736-11.576L112,409.888V400h208v96h176V320H464z M16,128h32v272H16V128z M60.424,477.264     c-1.688,3.376-7.16,3.376-8.84,0L20.944,416h70.112L60.424,477.264z M96,400H64V128h32V400z M96,112H16V96h80V112z M96,80H16V56     c0-22.056,17.944-40,40-40c22.056,0,40,17.944,40,40V80z M112,80h336v48H112V80z M320,384H112V144h336v176H320V384z M480,480H336     V336h144V480z" fill="#87cefa"/>
			<rect x="352" y="352" width="112" height="16" fill="#87cefa"/>
			<rect x="352" y="384" width="112" height="16" fill="#87cefa"/>
			<rect x="352" y="416" width="112" height="16" fill="#87cefa"/>
			<rect x="448" y="448" width="16" height="16" fill="#87cefa"/>
			<rect x="352" y="448" width="80" height="16" fill="#87cefa"/>
			<rect x="128" y="96" width="16" height="16" fill="#87cefa"/>
			<rect x="160" y="96" width="16" height="16" fill="#87cefa"/>
			<rect x="192" y="96" width="16" height="16" fill="#87cefa"/>
			<path d="M128,304h176V160H128V304z M144,176h144v112H144V176z" fill="#87cefa"/>
			<rect x="320" y="160" width="112" height="16" fill="#87cefa"/>
			<rect x="320" y="192" width="112" height="16" fill="#87cefa"/>
			<rect x="320" y="224" width="112" height="16" fill="#87cefa"/>
			<rect x="320" y="256" width="112" height="16" fill="#87cefa"/>
			<rect x="416" y="288" width="16" height="16" fill="#87cefa"/>
			<rect x="320" y="288" width="80" height="16" fill="#87cefa"/>
			<rect x="128" y="320" width="176" height="16" fill="#87cefa"/>
			<rect x="160" y="352" width="144" height="16" fill="#87cefa"/>
			<rect x="128" y="352" width="16" height="16" fill="#87cefa"/>
		</g>
	</g>
</g>
<g>
</g>
<g>
</g>
<g>
</g>
<g>
</g>
<g>
</g>
<g>
</g>
<g>
</g>
<g>
</g>
<g>
</g>
<g>
</g>
<g>
</g>
<g>
</g>
<g>
</g>
<g>
</g>
<g>
</g>
</svg>
