<?xml version="1.0" encoding="iso-8859-1"?>
<!-- Generator: Adobe Illustrator 19.0.0, SVG Export Plug-In . SVG Version: 6.00 Build 0)  -->
<svg xmlns="http://www.w3.org/2000/svg" xmlns:xlink="http://www.w3.org/1999/xlink" version="1.1" id="Layer_1" x="0px" y="0px" viewBox="0 0 512.01 512.01" style="enable-background:new 0 0 512.01 512.01;" xml:space="preserve" width="512px" height="512px">
<g>
	<g>
		<path d="M405.339,277.344h-42.667v-10.667c0-4.634-2.986-8.475-7.109-9.949l33.833-109.964    c21.799-6.701,37.797-26.788,37.797-50.754c0-28.01-7.458-52.156-45.563-92.646c-3.01-3.198-7.656-4.198-11.698-2.604    c-4.073,1.615-6.74,5.542-6.74,9.917c0,16.031-11.385,30.729-22.396,44.948c-10.427,13.458-20.271,26.177-20.271,40.385    c0,10.135,2.997,19.521,7.926,27.599L290.622,256.01h-13.284V10.677c0-5.896-4.771-10.667-10.667-10.667h-85.333    c-5.896,0-10.667,4.771-10.667,10.667V226.81L127.62,71.823c-0.302-1.094-0.781-2.125-1.406-3.063l-42.667-64    c-2.594-3.917-7.479-5.677-11.969-4.292c-4.5,1.365-7.573,5.51-7.573,10.208v74.667c0,1.021,0.146,2.031,0.438,3.01    l49.512,168.339c-4.208,1.427-7.283,5.289-7.283,9.984v202.667c0,23.531,19.135,42.667,42.667,42.667h170.667    c23.531,0,42.667-19.135,42.667-42.667v-42.667c47.052,0,85.333-38.281,85.333-85.333V320.01    C448.005,296.479,428.87,277.344,405.339,277.344z M357.661,68.677c8.156-10.521,17.021-21.958,22.25-35.052    c23.75,28.99,25.948,45.615,25.948,62.385c0,17.646-14.354,32-32,32s-32-14.354-32-32    C341.859,89.094,349.891,78.719,357.661,68.677z M192.005,213.344h32c5.896,0,10.667-4.771,10.667-10.667    s-4.771-10.667-10.667-10.667h-32v-42.667h32c5.896,0,10.667-4.771,10.667-10.667s-4.771-10.667-10.667-10.667h-32V85.344h32    c5.896,0,10.667-4.771,10.667-10.667s-4.771-10.667-10.667-10.667h-32V21.344h64V256.01h-64V213.344z M85.339,45.906l14.73,22.099    l-14.73,3.682V45.906z M88.038,92.992l21.801-5.451l46.797,168.469h-20.652L88.038,92.992z M341.339,469.344    c0,11.76-9.573,21.333-21.333,21.333H149.339c-11.76,0-21.333-9.573-21.333-21.333v-192h213.333V469.344z M333.458,256.01h-20.642    l32.835-114.923c6.215,3.902,13.279,6.454,20.855,7.513L333.458,256.01z M426.672,341.344c0,35.292-28.708,64-64,64V298.677    h42.667c11.76,0,21.333,9.573,21.333,21.333V341.344z" fill="#87cefa"/>
	</g>
</g>
<g>
</g>
<g>
</g>
<g>
</g>
<g>
</g>
<g>
</g>
<g>
</g>
<g>
</g>
<g>
</g>
<g>
</g>
<g>
</g>
<g>
</g>
<g>
</g>
<g>
</g>
<g>
</g>
<g>
</g>
</svg>
